<svg width="162" height="29" viewBox="0 0 162 29" fill="none" xmlns="http://www.w3.org/2000/svg">
<g clip-path="url(#clip0_2355_2537)">
<path d="M25.4191 0.5H3.09171C1.55032 0.5 0.300781 1.7536 0.300781 3.29999V25.6999C0.300781 27.2463 1.55032 28.4999 3.09171 28.4999H25.4191C26.9605 28.4999 28.2101 27.2463 28.2101 25.6999V3.29999C28.2101 1.7536 26.9605 0.5 25.4191 0.5Z" fill="#FF2AA1"/>
<path d="M12.9278 11.2101C12.9278 11.7896 13.3967 12.26 13.9744 12.26H15.7885C17.5998 12.26 19.0679 13.7328 19.0679 15.55C19.0679 17.3672 17.5998 18.84 15.7885 18.84H13.9744C13.3967 18.84 12.9278 19.3104 12.9278 19.89V22.13C12.9278 23.9472 11.4598 25.42 9.64848 25.42C7.83717 25.42 6.36914 23.9472 6.36914 22.13V19.89C6.36914 18.0728 7.83717 16.6 9.64848 16.6H11.4626C12.0403 16.6 12.5092 16.1296 12.5092 15.55C12.5092 14.9704 12.0403 14.5 11.4626 14.5H9.64848C7.83717 14.5 6.36914 13.0272 6.36914 11.2101C6.36914 9.39286 7.83717 7.92006 9.64848 7.92006H11.4626C12.0403 7.92006 12.5092 7.44966 12.5092 6.87007C12.5092 5.05287 13.9772 3.58008 15.7885 3.58008H18.8585C20.6699 3.58008 22.1379 5.05287 22.1379 6.87007C22.1379 8.68726 20.6699 10.1601 18.8585 10.1601H13.9744C13.3967 10.1601 12.9278 10.6305 12.9278 11.2101Z" fill="#F8F0EC"/>
</g>
<g clip-path="url(#clip1_2355_2537)">
<path d="M36.5234 4.94922H49.8913V8.16941H40.3097V12.6715H48.4288V15.9171H40.3097V23.6662H36.5234V4.94922Z" fill="#4D102D"/>
<path d="M50.1777 16.9651C50.1777 12.9603 53.0241 9.87109 57.1743 9.87109C61.3245 9.87109 64.1708 12.9603 64.1708 16.9651C64.1708 20.97 61.3245 24.0592 57.1743 24.0592C53.0241 24.0592 50.1777 20.97 50.1777 16.9651ZM60.5686 16.9651C60.5686 14.3478 59.342 12.5673 57.1743 12.5673C55.0065 12.5673 53.78 14.3478 53.78 16.9651C53.78 19.5825 54.9812 21.3363 57.1743 21.3363C59.3674 21.3363 60.5686 19.5825 60.5686 16.9651Z" fill="#4D102D"/>
<path d="M65.4258 16.9651C65.4258 12.9603 68.2721 9.87109 72.4223 9.87109C76.5725 9.87109 79.4189 12.9603 79.4189 16.9651C79.4189 20.97 76.5725 24.0592 72.4223 24.0592C68.2721 24.0592 65.4258 20.97 65.4258 16.9651ZM75.8166 16.9651C75.8166 14.3478 74.5901 12.5673 72.4223 12.5673C70.2546 12.5673 69.028 14.3478 69.028 16.9651C69.028 19.5825 70.2292 21.3363 72.4223 21.3363C74.6154 21.3363 75.8166 19.5825 75.8166 16.9651Z" fill="#4D102D"/>
<path d="M80.6719 16.9651C80.6719 12.7771 83.0476 9.87108 86.3899 9.87108C88.2697 9.87108 89.4442 10.7346 90.1761 11.8601H90.2548V4.94922H93.8051V23.6662H90.3855V21.9124H90.3335C89.5495 23.1956 88.219 24.0592 86.3392 24.0592C82.9716 24.0592 80.6732 21.3108 80.6732 16.9651H80.6719ZM90.3321 17.0427C90.3321 14.4775 89.4962 12.7491 87.2258 12.7491C85.2674 12.7491 84.2755 14.4775 84.2755 16.9638C84.2755 19.4501 85.294 21.0742 87.1218 21.0742C89.2362 21.0742 90.3335 19.5036 90.3335 17.0427H90.3321Z" fill="#4D102D"/>
<path d="M95.9492 17.9891H99.5915C99.8475 20.2014 101.105 21.0756 103.722 21.0756C105.62 21.0756 107.288 20.4072 107.288 18.7096C107.288 16.909 105.544 16.5494 102.747 15.9064C99.4635 15.1605 96.4625 14.2863 96.4625 10.4539C96.4625 6.82733 99.4128 4.94922 103.491 4.94922C107.569 4.94922 110.289 6.98106 110.572 10.6851H107.005C106.8 8.83377 105.364 7.90741 103.466 7.90741C101.465 7.90741 100.157 8.75624 100.157 10.0676C100.157 11.5594 101.439 11.9965 104.159 12.5887C107.929 13.4121 111.008 14.3117 111.008 18.2725C111.008 22.0019 108.007 24.0846 103.876 24.0846C98.8996 24.0846 96.0785 21.8723 95.9506 17.9891H95.9492Z" fill="#4D102D"/>
<path d="M140.17 9.89746C136.255 9.89746 134.504 11.9654 134.4 14.3207H137.56C137.664 13.0375 138.473 12.4359 140.145 12.4359C141.633 12.4359 142.39 13.0642 142.39 14.0333C142.39 15.0546 141.372 15.2377 139.153 15.5518C136.176 15.9702 133.775 16.9126 133.775 19.8708C133.775 22.5403 135.707 23.9813 138.448 23.9813C140.745 23.9813 141.712 23.1953 142.39 22.1754H142.442V23.6672H145.81V14.8447C145.81 11.7034 144.191 9.89746 140.17 9.89746ZM142.469 18.9284C142.469 20.2371 141.346 21.4936 139.309 21.4936C138.056 21.4936 137.22 21.0485 137.22 19.792C137.22 18.5354 138.133 18.117 139.988 17.6973C140.876 17.4874 141.841 17.2789 142.468 16.9113V18.9271L142.469 18.9284Z" fill="#4D102D"/>
<path d="M148.318 10.2374H151.738V11.9123H151.817C152.678 10.7346 153.931 9.87109 155.759 9.87109C159.309 9.87109 161.581 12.7772 161.581 16.9651C161.581 21.1531 159.232 24.0592 155.786 24.0592C153.906 24.0592 152.679 23.2999 151.922 22.1477H151.87V28.0641H148.32V10.2374H148.318ZM157.977 17.0694C157.977 14.5296 157.089 12.7504 154.896 12.7504C152.703 12.7504 151.79 14.6619 151.79 17.0694C151.79 19.4769 152.913 21.101 155.027 21.101C156.828 21.101 157.977 19.6092 157.977 17.0694Z" fill="#4D102D"/>
<path d="M134.248 10.2383L128.866 22.166C128.346 23.3196 127.201 24.0601 125.939 24.0601C124.164 24.0601 122.724 22.6178 122.724 20.8372V13.7245L118.915 22.166C118.395 23.3196 117.25 24.0601 115.988 24.0601C114.213 24.0601 112.773 22.6178 112.773 20.8372V10.2383H116.298V20.1542L119.918 12.1324C120.438 10.9788 121.583 10.2383 122.846 10.2383H123.035C124.809 10.2383 126.249 11.6806 126.249 13.4611V20.1542L130.723 10.2383H134.248Z" fill="#4D102D"/>
</g>
<defs>
<clipPath id="clip0_2355_2537">
<rect width="27.9093" height="27.9999" fill="white" transform="translate(0.359375 0.5)"/>
</clipPath>
<clipPath id="clip1_2355_2537">
<rect width="125.057" height="23.1148" fill="white" transform="translate(36.582 4.94922)"/>
</clipPath>
</defs>
</svg>
